<svg width="231" height="84" viewBox="0 0 231 84" fill="none" xmlns="http://www.w3.org/2000/svg">
<rect y="81.0729" width="230.033" height="2.00226" fill="#FF9000"/>
<rect y="0.982452" width="230.033" height="2.00226" fill="#FF9000"/>
<path d="M53.2793 39.8023V53.8742C53.2793 55.0702 53.0356 56.2101 52.548 57.294C52.098 58.3405 51.4792 59.2562 50.6917 60.0411C49.9042 60.826 48.9666 61.4427 47.8791 61.8912C46.829 62.3771 45.704 62.62 44.5039 62.62C43.3038 62.62 42.1788 62.3958 41.1287 61.9473C40.0787 61.4988 39.1599 60.9008 38.3723 60.1533C37.5848 59.3684 36.9473 58.4714 36.4598 57.4622C36.0097 56.4157 35.766 55.2944 35.7285 54.0984V43.7267C35.616 42.5681 35.0909 41.7271 34.1534 41.2039C34.6784 40.9422 35.2034 40.8114 35.7285 40.8114V27.5805C35.766 26.3845 36.0097 25.2632 36.4598 24.2167C36.9473 23.1702 37.5848 22.2732 38.3723 21.5256C39.1599 20.7408 40.0787 20.1241 41.1287 19.6756C42.1788 19.227 43.3038 19.0028 44.5039 19.0028C45.704 19.0028 46.829 19.2457 47.8791 19.7316C48.9666 20.1801 49.9042 20.7968 50.6917 21.5817C51.4792 22.3666 52.098 23.301 52.548 24.3849C53.0356 25.4314 53.2793 26.5713 53.2793 27.8047C53.2793 28.4401 53.3356 28.9073 53.4481 29.2063C53.5981 29.5053 53.7481 29.7483 53.8981 29.9351C54.0481 30.122 54.1794 30.2902 54.2919 30.4397C54.4419 30.5892 54.5169 30.8321 54.5169 31.1685H51.5917C50.9917 31.0938 50.6917 30.7761 50.6917 30.2155C50.6917 30.7761 50.3917 31.0938 49.7916 31.1685H46.8103C46.8103 30.8321 46.8665 30.5892 46.979 30.4397C47.129 30.2902 47.279 30.122 47.429 29.9351C47.579 29.7483 47.7103 29.5053 47.8228 29.2063C47.9728 28.9073 48.0478 28.4214 48.0478 27.7487V27.6926C48.0478 27.2067 48.0291 26.6274 47.9916 25.9546C47.9541 25.2445 47.8228 24.5717 47.5978 23.9364C47.3728 23.301 47.0165 22.759 46.529 22.3105C46.0415 21.862 45.3664 21.6378 44.5039 21.6378C43.6039 21.6378 42.9101 21.8807 42.4225 22.3666C41.9725 22.8151 41.635 23.357 41.41 23.9924C41.185 24.6278 41.0537 25.3006 41.0162 26.0107C40.9787 26.7208 40.96 27.3189 40.96 27.8047V40.8114C41.485 40.8114 42.01 40.9422 42.535 41.2039C41.5975 41.7271 41.0725 42.5681 40.96 43.7267V53.8742C40.96 54.3601 40.9787 54.9581 41.0162 55.6682C41.0537 56.341 41.185 57.0137 41.41 57.6865C41.635 58.3219 41.9725 58.8638 42.4225 59.3123C42.9101 59.7608 43.6039 59.9851 44.5039 59.9851C45.4039 59.9851 46.079 59.7608 46.529 59.3123C47.0165 58.8638 47.3728 58.3219 47.5978 57.6865C47.8228 57.0137 47.9541 56.341 47.9916 55.6682C48.0291 54.9581 48.0478 54.3601 48.0478 53.8742V42.3812C47.6353 42.4186 47.279 42.5868 46.979 42.8858C46.7165 43.1848 46.5852 43.5398 46.5852 43.951V44.007C46.5477 44.5677 46.3977 45.0535 46.1352 45.4647C45.9102 45.8384 45.5727 46.1748 45.1227 46.4738C44.6727 46.7354 44.0164 46.8663 43.1538 46.8663V39.8023H53.2793ZM38.7661 38.1764C38.7661 37.9522 38.7474 37.7279 38.7099 37.5037C38.7099 37.2794 38.7099 37.0739 38.7099 36.887V35.5975C38.6724 34.7753 38.6536 33.9904 38.6536 33.2429C38.6536 32.4954 38.6349 31.7852 38.5974 31.1125C38.5599 30.7761 38.5411 30.4771 38.5411 30.2155C38.5411 29.9164 38.5224 29.6174 38.4849 29.3184C38.4849 29.0568 38.4661 28.8139 38.4286 28.5896C38.4286 28.328 38.4286 28.1037 38.4286 27.9169C38.4286 27.73 38.4099 27.5618 38.3723 27.4123C38.3723 27.2628 38.3723 27.132 38.3723 27.0198V26.7395C38.3348 26.7395 38.3161 26.7582 38.3161 26.7956V27.0198C38.3161 27.132 38.2973 27.2628 38.2598 27.4123C38.2598 27.5618 38.2598 27.73 38.2598 27.9169C38.2598 28.1037 38.2411 28.328 38.2036 28.5896C38.2036 28.8139 38.2036 29.0568 38.2036 29.3184C38.1661 29.6174 38.1473 29.9164 38.1473 30.2155C38.1473 30.4771 38.1286 30.7761 38.0911 31.1125C38.0536 31.7852 38.0348 32.4954 38.0348 33.2429C38.0348 33.9904 38.0161 34.7753 37.9786 35.5975V36.887C37.9786 37.0739 37.9598 37.2794 37.9223 37.5037C37.9223 37.7279 37.9223 37.9522 37.9223 38.1764V43.3903C37.9223 43.5025 37.9223 43.6146 37.9223 43.7267C37.9598 43.8388 37.9786 43.9323 37.9786 44.007V45.9132C37.9786 46.3243 37.9786 46.7354 37.9786 47.1466C38.0161 47.5203 38.0348 47.8941 38.0348 48.2678C38.0348 48.679 38.0348 49.0714 38.0348 49.4452C38.0723 49.7815 38.0911 50.0992 38.0911 50.3982C38.1286 50.7346 38.1473 51.0523 38.1473 51.3513C38.1473 51.6503 38.1661 51.9306 38.2036 52.1923C38.2036 52.4913 38.2036 52.7529 38.2036 52.9772C38.2411 53.2014 38.2598 53.407 38.2598 53.5938C38.2598 53.7807 38.2598 53.9489 38.2598 54.0984C38.2973 54.2479 38.3161 54.3787 38.3161 54.4909V54.7712C38.3161 54.8086 38.3348 54.8272 38.3723 54.8272V54.4909C38.3723 54.3787 38.3723 54.2479 38.3723 54.0984C38.4099 53.9489 38.4286 53.7807 38.4286 53.5938C38.4286 53.407 38.4286 53.2014 38.4286 52.9772C38.4661 52.7529 38.4849 52.4913 38.4849 52.1923C38.5224 51.9306 38.5411 51.6503 38.5411 51.3513C38.5411 51.0523 38.5599 50.7346 38.5974 50.3982C38.5974 50.0992 38.5974 49.7815 38.5974 49.4452C38.6349 49.0714 38.6536 48.679 38.6536 48.2678C38.6536 47.8941 38.6536 47.5203 38.6536 47.1466C38.6911 46.7354 38.7099 46.3243 38.7099 45.9132V44.6798C38.7099 44.3808 38.7286 44.1565 38.7661 44.007V38.1764ZM51.0292 46.3056C50.9917 45.9319 50.973 45.5955 50.973 45.2965C50.973 44.9601 50.9542 44.6424 50.9167 44.3434C50.8792 43.7828 50.8229 43.3156 50.7479 42.9418C50.7479 42.8671 50.7292 42.7923 50.6917 42.7176C50.6917 42.6428 50.6917 42.5868 50.6917 42.5494V42.3812L50.6354 42.4373V42.5494C50.6354 42.5868 50.6167 42.6428 50.5792 42.7176C50.5792 42.7923 50.5792 42.8671 50.5792 42.9418C50.5042 43.3156 50.4479 43.7828 50.4104 44.3434C50.3729 44.6424 50.3542 44.9601 50.3542 45.2965C50.3542 45.5955 50.3354 45.9319 50.2979 46.3056V46.8663C50.2979 46.9784 50.2792 47.0905 50.2417 47.2026C50.2417 47.2774 50.2417 47.3521 50.2417 47.4269V49.7815C50.2417 49.8937 50.2604 49.9871 50.2979 50.0619V50.9028C50.2979 51.0897 50.2979 51.2579 50.2979 51.4074C50.3354 51.5569 50.3542 51.7251 50.3542 51.912C50.3542 52.0988 50.3542 52.267 50.3542 52.4165C50.3917 52.566 50.4104 52.7155 50.4104 52.865C50.4479 53.0145 50.4667 53.164 50.4667 53.3135C50.4667 53.4257 50.4854 53.5378 50.5229 53.6499C50.5229 53.762 50.5229 53.8742 50.5229 53.9863C50.5604 54.0984 50.5792 54.1919 50.5792 54.2666C50.5792 54.3414 50.5792 54.4161 50.5792 54.4909C50.6167 54.5656 50.6354 54.6217 50.6354 54.6591V54.7712C50.6354 54.8086 50.6542 54.8272 50.6917 54.8272V54.6591C50.6917 54.6217 50.6917 54.5656 50.6917 54.4909C50.7292 54.4161 50.7479 54.3414 50.7479 54.2666C50.7479 54.1919 50.7479 54.0984 50.7479 53.9863C50.7854 53.8742 50.8042 53.762 50.8042 53.6499C50.8417 53.5378 50.8604 53.4257 50.8604 53.3135C50.8604 53.164 50.8792 53.0145 50.9167 52.865C50.9167 52.7155 50.9167 52.566 50.9167 52.4165C50.9542 52.267 50.973 52.0988 50.973 51.912C50.973 51.7251 50.973 51.5569 50.973 51.4074C51.0105 51.2579 51.0292 51.0897 51.0292 50.9028V50.3422C51.0292 50.1927 51.048 50.0992 51.0855 50.0619V47.4269C51.0855 47.3521 51.0667 47.2774 51.0292 47.2026C51.0292 47.0905 51.0292 46.9784 51.0292 46.8663V46.3056Z" fill="#F4EDE8"/>
<path d="M73.7149 40.8675C74.3524 40.8675 74.8774 40.9983 75.2899 41.2599C74.8774 41.5216 74.5212 41.8766 74.2211 42.3251C73.9586 42.7736 73.7899 43.2595 73.7149 43.7828V52.2483C73.6774 53.4444 73.4148 54.5656 72.9273 55.6121C72.4773 56.6213 71.8585 57.5183 71.071 58.3032C70.2834 59.0507 69.3647 59.6487 68.3146 60.0972C67.2646 60.5457 66.1395 60.77 64.9394 60.77C63.7394 60.77 62.6143 60.5457 61.5643 60.0972C60.5142 59.6487 59.5954 59.0507 58.8079 58.3032C58.0204 57.5183 57.3828 56.6213 56.8953 55.6121C56.4453 54.5656 56.2015 53.4444 56.164 52.2483V43.7828C56.0515 42.6241 55.5265 41.7832 54.5889 41.2599C55.0015 40.9983 55.5265 40.8675 56.164 40.8675V30.0473C56.2015 28.8886 56.4453 27.786 56.8953 26.7395C57.3828 25.693 58.0204 24.796 58.8079 24.0485C59.5954 23.2636 60.5142 22.6469 61.5643 22.1984C62.6143 21.7499 63.7394 21.5256 64.9394 21.5256C66.1395 21.5256 67.2646 21.7499 68.3146 22.1984C69.3647 22.6469 70.2834 23.2636 71.071 24.0485C71.8585 24.796 72.4773 25.693 72.9273 26.7395C73.4148 27.786 73.6774 28.8886 73.7149 30.0473V40.8675ZM59.2017 38.8492C59.2017 38.6623 59.1829 38.4941 59.1454 38.3446C59.1454 38.1578 59.1454 37.9709 59.1454 37.784V36.7188C59.1079 36.0087 59.0892 35.3359 59.0892 34.7005C59.0892 34.0651 59.0704 33.4671 59.0329 32.9065C58.9954 32.6449 58.9767 32.3832 58.9767 32.1216C58.9767 31.86 58.9579 31.617 58.9204 31.3928C58.9204 31.1685 58.9017 30.963 58.8642 30.7761C58.8642 30.5892 58.8642 30.421 58.8642 30.2715C58.8642 30.0846 58.8454 29.9351 58.8079 29.823C58.8079 29.6735 58.8079 29.5614 58.8079 29.4866V29.2063C58.7704 29.2063 58.7516 29.225 58.7516 29.2624V29.4866C58.7516 29.5614 58.7329 29.6735 58.6954 29.823C58.6954 29.9351 58.6954 30.0846 58.6954 30.2715C58.6954 30.421 58.6766 30.5892 58.6391 30.7761C58.6391 30.963 58.6391 31.1685 58.6391 31.3928C58.6016 31.617 58.5829 31.86 58.5829 32.1216C58.5829 32.3832 58.5641 32.6449 58.5266 32.9065C58.4891 33.4671 58.4704 34.0651 58.4704 34.7005C58.4704 35.3359 58.4516 36.0087 58.4141 36.7188V37.784C58.4141 37.9709 58.3954 38.1578 58.3579 38.3446C58.3579 38.4941 58.3579 38.6623 58.3579 38.8492V43.2782C58.3579 43.5398 58.3766 43.7267 58.4141 43.8388V45.4647C58.4141 45.8011 58.4141 46.1374 58.4141 46.4738C58.4516 46.8102 58.4704 47.1279 58.4704 47.4269C58.4704 47.7633 58.4704 48.081 58.4704 48.38C58.5079 48.6416 58.5266 48.9219 58.5266 49.2209C58.5641 49.5199 58.5829 49.8002 58.5829 50.0619C58.5829 50.2861 58.6016 50.5104 58.6391 50.7346C58.6391 50.9589 58.6391 51.1644 58.6391 51.3513C58.6766 51.5382 58.6954 51.7251 58.6954 51.912C58.6954 52.0988 58.6954 52.267 58.6954 52.4165C58.7329 52.5286 58.7516 52.6221 58.7516 52.6968V52.865C58.7516 52.9024 58.7704 52.9211 58.8079 52.9211V52.6968C58.8079 52.6221 58.8079 52.5286 58.8079 52.4165C58.8454 52.267 58.8642 52.0988 58.8642 51.912C58.8642 51.7251 58.8642 51.5382 58.8642 51.3513C58.9017 51.1644 58.9204 50.9589 58.9204 50.7346C58.9579 50.5104 58.9767 50.2861 58.9767 50.0619C58.9767 49.8002 58.9954 49.5199 59.0329 49.2209C59.0329 48.9219 59.0329 48.6416 59.0329 48.38C59.0704 48.081 59.0892 47.7633 59.0892 47.4269C59.0892 47.1279 59.0892 46.8102 59.0892 46.4738C59.1267 46.1374 59.1454 45.8011 59.1454 45.4647V43.8388C59.1829 43.7267 59.2017 43.5398 59.2017 43.2782V38.8492ZM68.4834 30.2715C68.4834 29.7856 68.4646 29.1876 68.4271 28.4775C68.3896 27.7674 68.2584 27.0946 68.0333 26.4592C67.8083 25.8238 67.4521 25.2819 66.9645 24.8334C66.5145 24.3475 65.8395 24.1046 64.9394 24.1046C64.0394 24.1046 63.3456 24.3475 62.8581 24.8334C62.4081 25.2819 62.0706 25.8238 61.8455 26.4592C61.6205 27.0946 61.4893 27.7674 61.4518 28.4775C61.4143 29.1876 61.3955 29.7856 61.3955 30.2715V40.8675C62.0331 40.8675 62.5581 40.9983 62.9706 41.2599C62.0331 41.7832 61.508 42.6241 61.3955 43.7828V52.0241C61.3955 52.51 61.4143 53.108 61.4518 53.8181C61.4893 54.4909 61.6205 55.1636 61.8455 55.8364C62.0706 56.4718 62.4081 57.0137 62.8581 57.4622C63.3456 57.9107 64.0394 58.135 64.9394 58.135C65.8395 58.135 66.5145 57.9107 66.9645 57.4622C67.4521 57.0137 67.8083 56.4718 68.0333 55.8364C68.2584 55.1636 68.3896 54.4909 68.4271 53.8181C68.4646 53.108 68.4834 52.51 68.4834 52.0241V43.7828C68.4084 42.6615 67.8833 41.8206 66.9083 41.2599C67.3208 40.9983 67.8458 40.8675 68.4834 40.8675V30.2715ZM71.521 38.8492C71.521 38.6623 71.521 38.4941 71.521 38.3446C71.521 38.1578 71.5023 37.9709 71.4648 37.784V36.7188C71.4648 36.0087 71.446 35.3359 71.4085 34.7005C71.4085 34.0651 71.3898 33.4671 71.3522 32.9065C71.3147 32.6449 71.296 32.3832 71.296 32.1216C71.296 31.86 71.2772 31.617 71.2397 31.3928C71.2397 31.1685 71.221 30.963 71.1835 30.7761C71.1835 30.5892 71.1835 30.421 71.1835 30.2715C71.1835 30.0846 71.1647 29.9351 71.1272 29.823C71.1272 29.6735 71.1272 29.5614 71.1272 29.4866V29.2063C71.0897 29.2063 71.071 29.225 71.071 29.2624V29.4866C71.071 29.5614 71.071 29.6735 71.071 29.823C71.071 29.9351 71.0522 30.0846 71.0147 30.2715C71.0147 30.421 70.996 30.5892 70.9585 30.7761C70.9585 30.963 70.9585 31.1685 70.9585 31.3928C70.921 31.617 70.9022 31.86 70.9022 32.1216C70.9022 32.3832 70.8835 32.6449 70.846 32.9065C70.8085 33.4671 70.7897 34.0651 70.7897 34.7005C70.7897 35.3359 70.771 36.0087 70.7335 36.7188V38.8492C70.696 39.223 70.6772 39.5967 70.6772 39.9705C70.6772 40.3442 70.6772 40.718 70.6772 41.0917C70.6772 41.4655 70.6772 41.8392 70.6772 42.213C70.6772 42.5494 70.696 42.9044 70.7335 43.2782V45.4647C70.7335 45.8011 70.7335 46.1374 70.7335 46.4738C70.771 46.8102 70.7897 47.1279 70.7897 47.4269C70.7897 47.7633 70.7897 48.081 70.7897 48.38C70.8272 48.6416 70.846 48.9219 70.846 49.2209C70.8835 49.5199 70.9022 49.8002 70.9022 50.0619C70.9022 50.2861 70.921 50.5104 70.9585 50.7346C70.9585 50.9589 70.9585 51.1644 70.9585 51.3513C70.996 51.5382 71.0147 51.7251 71.0147 51.912C71.0522 52.0988 71.071 52.267 71.071 52.4165C71.071 52.5286 71.071 52.6221 71.071 52.6968V52.865C71.071 52.9024 71.0897 52.9211 71.1272 52.9211V52.6968C71.1272 52.6221 71.1272 52.5286 71.1272 52.4165C71.1647 52.267 71.1835 52.0988 71.1835 51.912C71.1835 51.7251 71.1835 51.5382 71.1835 51.3513C71.221 51.1644 71.2397 50.9589 71.2397 50.7346C71.2772 50.5104 71.296 50.2861 71.296 50.0619C71.296 49.8002 71.3147 49.5199 71.3522 49.2209C71.3522 48.9219 71.3522 48.6416 71.3522 48.38C71.3898 48.081 71.4085 47.7633 71.4085 47.4269C71.4085 47.1279 71.4085 46.8102 71.4085 46.4738C71.446 46.1374 71.4648 45.8011 71.4648 45.4647V44.3995C71.4648 44.3247 71.4648 44.2313 71.4648 44.1192C71.5023 44.007 71.521 43.9136 71.521 43.8388V38.8492Z" fill="#F4EDE8"/>
<path d="M94.5899 33.6353C94.5899 35.3172 94.1774 36.8309 93.3523 38.1764C92.5273 39.522 91.421 40.5685 90.0334 41.316C90.7085 41.8392 91.3272 42.4559 91.8898 43.1661C92.4523 43.8388 92.9211 44.5863 93.2961 45.4086C93.7086 46.2309 94.0274 47.0718 94.2524 47.9315C94.4774 48.7911 94.5899 49.632 94.5899 50.4543V54.0424C94.5524 55.2384 94.3086 56.3596 93.8586 57.4062C93.4086 58.4153 92.7898 59.3123 92.0023 60.0972C91.2147 60.8447 90.2959 61.4427 89.2459 61.8912C88.1958 62.3771 87.0708 62.62 85.8707 62.62H80.583C80.3205 62.62 80.0954 62.5266 79.9079 62.3397C79.7579 62.1528 79.6829 61.9286 79.6829 61.667C79.6829 61.9286 79.5892 62.1528 79.4017 62.3397C79.2141 62.5266 79.0079 62.62 78.7829 62.62H75.8015C75.8015 62.2837 75.8577 62.0407 75.9702 61.8912C76.1203 61.7417 76.2703 61.5735 76.4203 61.3866C76.5703 61.2371 76.7015 61.0129 76.814 60.7139C76.964 60.4149 77.039 59.9477 77.039 59.3123V43.6706C76.9265 42.5494 76.4015 41.7271 75.464 41.2039C75.9515 40.9049 76.4765 40.7554 77.039 40.7554V22.3105C77.039 21.6751 76.964 21.208 76.814 20.9089C76.7015 20.6099 76.5703 20.3857 76.4203 20.2362C76.2703 20.0493 76.1203 19.8811 75.9702 19.7316C75.8577 19.5821 75.8015 19.3392 75.8015 19.0028H78.7829C79.0079 19.0028 79.2141 19.0962 79.4017 19.2831C79.5892 19.4326 79.6829 19.6382 79.6829 19.8998C79.6829 19.3018 79.9829 19.0028 80.583 19.0028H85.8707C87.0708 19.0028 88.1958 19.227 89.2459 19.6756C90.2959 20.1241 91.2147 20.7408 92.0023 21.5256C92.7898 22.2732 93.4086 23.1702 93.8586 24.2167C94.3086 25.2632 94.5524 26.3658 94.5899 27.5244V33.6353ZM80.0767 37.784C80.0767 37.5224 80.0579 37.2794 80.0204 37.0552C80.0204 36.7935 80.0204 36.5506 80.0204 36.3264V34.8687C79.9829 33.8969 79.9642 32.9812 79.9642 32.1216C79.9642 31.262 79.9454 30.4584 79.9079 29.7109C79.8704 29.2998 79.8517 28.926 79.8517 28.5896C79.8517 28.2532 79.8329 27.9355 79.7954 27.6365C79.7954 27.3375 79.7767 27.0572 79.7392 26.7956C79.7392 26.4966 79.7392 26.2536 79.7392 26.0668C79.7392 25.8425 79.7204 25.6369 79.6829 25.4501C79.6829 25.2632 79.6829 25.1137 79.6829 25.0016V24.6652C79.6454 24.7026 79.6267 24.7399 79.6267 24.7773V25.0016C79.6267 25.1137 79.6079 25.2632 79.5704 25.4501C79.5704 25.6369 79.5704 25.8425 79.5704 26.0668C79.5704 26.2536 79.5517 26.4966 79.5142 26.7956C79.5142 27.0572 79.5142 27.3375 79.5142 27.6365C79.4767 27.9355 79.4579 28.2532 79.4579 28.5896C79.4579 28.926 79.4392 29.2998 79.4017 29.7109C79.3642 30.4584 79.3454 31.262 79.3454 32.1216C79.3454 32.9812 79.3267 33.8969 79.2892 34.8687V36.3264C79.2892 36.5506 79.2892 36.7935 79.2892 37.0552C79.2892 37.2794 79.2704 37.5224 79.2329 37.784V43.7828C79.2329 43.9323 79.2329 44.0631 79.2329 44.1752C79.2704 44.2873 79.2892 44.4182 79.2892 44.5677V46.6981C79.2892 47.1839 79.2892 47.6698 79.2892 48.1557C79.3267 48.6042 79.3454 49.034 79.3454 49.4452C79.3454 49.8563 79.3454 50.2674 79.3454 50.6786C79.3829 51.0897 79.4017 51.5008 79.4017 51.912C79.4392 52.0988 79.4579 52.2857 79.4579 52.4726C79.4579 52.6221 79.4579 52.7903 79.4579 52.9772C79.4579 53.164 79.4579 53.3322 79.4579 53.4817C79.4954 53.6312 79.5142 53.7807 79.5142 53.9302C79.5142 54.2292 79.5142 54.5282 79.5142 54.8272C79.5517 55.0889 79.5704 55.3318 79.5704 55.5561C79.5704 55.7803 79.5704 55.9859 79.5704 56.1728C79.6079 56.3223 79.6267 56.4531 79.6267 56.5652V56.8455C79.6267 56.8829 79.6454 56.9203 79.6829 56.9576V56.5652C79.6829 56.4531 79.6829 56.3223 79.6829 56.1728C79.7204 55.9859 79.7392 55.7803 79.7392 55.5561C79.7392 55.3318 79.7392 55.0889 79.7392 54.8272C79.7767 54.5282 79.7954 54.2292 79.7954 53.9302C79.8329 53.7807 79.8517 53.6312 79.8517 53.4817C79.8517 53.3322 79.8517 53.164 79.8517 52.9772C79.8517 52.7903 79.8517 52.6221 79.8517 52.4726C79.8892 52.2857 79.9079 52.0988 79.9079 51.912C79.9079 51.5008 79.9079 51.0897 79.9079 50.6786C79.9454 50.2674 79.9642 49.8563 79.9642 49.4452C79.9642 49.034 79.9642 48.6042 79.9642 48.1557C80.0017 47.6698 80.0204 47.1839 80.0204 46.6981V45.2965C80.0204 44.9601 80.0392 44.7172 80.0767 44.5677V37.784ZM91.6647 52.9211C91.6272 53.0332 91.6085 53.2201 91.6085 53.4817V54.4909C91.6085 54.6777 91.5897 54.8459 91.5522 54.9954C91.5522 55.1449 91.5522 55.2944 91.5522 55.4439C91.5522 55.5934 91.5335 55.7243 91.496 55.8364C91.496 55.9485 91.496 56.0606 91.496 56.1728V56.341C91.4585 56.3783 91.4397 56.4344 91.4397 56.5091V56.7895C91.4022 56.8268 91.3835 56.8642 91.3835 56.9016V57.0137C91.3835 57.0511 91.3647 57.0885 91.3272 57.1258C91.3272 57.1258 91.3272 57.1445 91.3272 57.1819C91.3272 57.2193 91.3085 57.2567 91.271 57.294H91.3272C91.3272 57.294 91.346 57.2567 91.3835 57.1819C91.3835 57.1819 91.4022 57.1445 91.4397 57.0698C91.4772 57.0324 91.496 56.995 91.496 56.9576C91.5335 56.9203 91.5522 56.8829 91.5522 56.8455C91.5897 56.8081 91.6085 56.7708 91.6085 56.7334C91.646 56.696 91.6647 56.64 91.6647 56.5652C91.7398 56.4905 91.7773 56.397 91.7773 56.2849C91.8523 56.1354 91.9273 55.8738 92.0023 55.5C92.0773 55.2757 92.1148 55.1262 92.1148 55.0515C92.1523 54.9767 92.171 54.902 92.171 54.8272C92.171 54.7151 92.1898 54.6217 92.2273 54.5469C92.2273 54.4722 92.2273 54.3974 92.2273 54.3227C92.2648 54.2105 92.2835 54.1171 92.2835 54.0424C92.321 53.9302 92.3398 53.762 92.3398 53.5378C92.3773 53.3509 92.396 53.164 92.396 52.9772C92.396 52.7903 92.4148 52.6034 92.4523 52.4165V50.0619C92.4523 49.875 92.4335 49.6881 92.396 49.5012C92.396 49.3144 92.3773 49.1275 92.3398 48.9406C92.3398 48.7163 92.321 48.5482 92.2835 48.436C92.2835 48.3613 92.2648 48.2865 92.2273 48.2118C92.2273 48.0996 92.2273 48.0062 92.2273 47.9315C92.1898 47.8567 92.171 47.782 92.171 47.7072C92.171 47.5951 92.1523 47.5016 92.1148 47.4269C92.1148 47.3521 92.096 47.2774 92.0585 47.2026C92.0585 47.1279 92.0585 47.0531 92.0585 46.9784C91.9835 46.7541 91.946 46.6233 91.946 46.5859C91.9085 46.4738 91.8523 46.343 91.7773 46.1935C91.7773 46.0814 91.7398 45.9879 91.6647 45.9132C91.6647 45.8011 91.6272 45.7076 91.5522 45.6329C91.4772 45.4834 91.421 45.3712 91.3835 45.2965C91.346 45.2591 91.3272 45.2217 91.3272 45.1844H91.271C91.271 45.1844 91.2897 45.2217 91.3272 45.2965C91.3272 45.3339 91.3272 45.3712 91.3272 45.4086C91.3647 45.4086 91.3835 45.4273 91.3835 45.4647C91.3835 45.5394 91.4022 45.6142 91.4397 45.6889V45.9692C91.4772 46.044 91.496 46.1374 91.496 46.2496C91.496 46.4364 91.5147 46.5673 91.5522 46.642V47.0344C91.5897 47.1839 91.6085 47.3334 91.6085 47.483C91.6085 47.6325 91.6085 47.8006 91.6085 47.9875V48.4921C91.6085 48.5668 91.6085 48.6603 91.6085 48.7724C91.646 48.8472 91.6647 48.9219 91.6647 48.9967V52.9211ZM89.3584 50.4543C89.3584 49.9684 89.3396 49.277 89.3021 48.38C89.2646 47.483 89.1334 46.5859 88.9084 45.6889C88.6834 44.7919 88.3271 44.0257 87.8396 43.3903C87.3895 42.7176 86.7145 42.3812 85.8145 42.3812H83.7894C83.3769 42.3812 83.0206 42.5307 82.7206 42.8297C82.4206 43.1287 82.2705 43.4838 82.2705 43.8949V58.4714C82.2705 58.8825 82.4206 59.2376 82.7206 59.5366C83.0206 59.7982 83.3769 59.9477 83.7894 59.9851H85.8145C86.7145 59.9851 87.3895 59.7608 87.8396 59.3123C88.3271 58.8264 88.6834 58.2658 88.9084 57.6304C89.1334 56.995 89.2646 56.3223 89.3021 55.6121C89.3396 54.902 89.3584 54.304 89.3584 53.8181V50.4543ZM89.3584 27.7487C89.3584 27.2628 89.3396 26.6835 89.3021 26.0107C89.2646 25.3006 89.1334 24.6278 88.9084 23.9924C88.6834 23.357 88.3271 22.8151 87.8396 22.3666C87.3895 21.8807 86.7145 21.6378 85.8145 21.6378H83.7894C83.3769 21.6378 83.0206 21.7873 82.7206 22.0863C82.4206 22.3853 82.2705 22.7403 82.2705 23.1515V38.2325C82.2705 38.6436 82.4206 38.9987 82.7206 39.2977C83.0206 39.5967 83.3769 39.7462 83.7894 39.7462H85.8145C86.7145 39.7462 87.3895 39.522 87.8396 39.0735C88.3271 38.6249 88.6834 38.083 88.9084 37.4476C89.1334 36.7749 89.2646 36.1021 89.3021 35.4293C89.3396 34.7192 89.3584 34.1212 89.3584 33.6353V27.7487ZM91.8898 35.149C91.9648 34.9248 92.0023 34.7753 92.0023 34.7005C92.0773 34.551 92.1148 34.4015 92.1148 34.252C92.1523 34.1773 92.171 34.1025 92.171 34.0278C92.171 33.9156 92.1898 33.8222 92.2273 33.7474C92.2273 33.6727 92.2273 33.5979 92.2273 33.5232C92.2648 33.4111 92.2835 33.2989 92.2835 33.1868C92.321 33.0747 92.3398 32.8878 92.3398 32.6262C92.3773 32.4393 92.396 32.2524 92.396 32.0655C92.396 31.8787 92.4148 31.6918 92.4523 31.5049V30.2715C92.4523 29.8604 92.4523 29.4679 92.4523 29.0942C92.4523 28.6831 92.4335 28.2906 92.396 27.9169C92.3585 27.8047 92.3398 27.7113 92.3398 27.6365C92.3398 27.5244 92.321 27.431 92.2835 27.3562C92.2835 27.0946 92.2648 26.9077 92.2273 26.7956C92.1898 26.6087 92.1523 26.4405 92.1148 26.291C92.1148 26.1415 92.096 25.992 92.0585 25.8425C91.9835 25.6183 91.946 25.4688 91.946 25.394C91.871 25.2445 91.8335 25.1324 91.8335 25.0576C91.7585 24.9081 91.7023 24.796 91.6647 24.7213C91.6647 24.6091 91.6272 24.5157 91.5522 24.4409C91.5147 24.3288 91.4585 24.198 91.3835 24.0485L91.271 23.9364V23.9924C91.271 24.0298 91.271 24.0485 91.271 24.0485C91.3085 24.0485 91.3272 24.0672 91.3272 24.1046C91.3647 24.1419 91.3835 24.198 91.3835 24.2727C91.3835 24.3475 91.4022 24.4222 91.4397 24.497V24.7773C91.4772 24.8521 91.496 24.9642 91.496 25.1137C91.496 25.1884 91.496 25.2632 91.496 25.3379C91.5335 25.3753 91.5522 25.4314 91.5522 25.5061V25.8986C91.5897 26.0481 91.6085 26.1976 91.6085 26.3471C91.6085 26.4966 91.6085 26.6648 91.6085 26.8517V27.4123C91.6085 27.487 91.6085 27.5805 91.6085 27.6926C91.646 27.7674 91.6647 27.8421 91.6647 27.9169V32.0655C91.6272 32.1777 91.6085 32.3645 91.6085 32.6262V33.6914C91.6085 33.8783 91.5897 34.0464 91.5522 34.1959C91.5522 34.3455 91.5522 34.495 91.5522 34.6445C91.5522 34.794 91.5335 34.9435 91.496 35.093C91.496 35.2051 91.496 35.3172 91.496 35.4293C91.496 35.6162 91.4772 35.7283 91.4397 35.7657V36.1021C91.4022 36.1021 91.3835 36.1395 91.3835 36.2142V36.3264C91.3835 36.3637 91.3647 36.4011 91.3272 36.4385C91.3272 36.4385 91.3272 36.4572 91.3272 36.4945C91.3272 36.5319 91.3085 36.5693 91.271 36.6067L91.3835 36.4945C91.3835 36.4572 91.3835 36.4385 91.3835 36.4385C91.421 36.4011 91.4397 36.3637 91.4397 36.3264C91.4772 36.3264 91.496 36.289 91.496 36.2142C91.5335 36.2142 91.5522 36.1769 91.5522 36.1021C91.5897 36.1021 91.6085 36.0647 91.6085 35.99C91.646 35.9526 91.6647 35.8965 91.6647 35.8218C91.7398 35.747 91.7773 35.6536 91.7773 35.5415C91.8523 35.3172 91.8898 35.1864 91.8898 35.149Z" fill="#F4EDE8"/>
<path d="M115.867 57.4062C116.017 58.0415 116.186 58.5087 116.373 58.8077C116.561 59.1067 116.748 59.3497 116.936 59.5366C117.123 59.7234 117.292 59.8916 117.442 60.0411C117.592 60.1906 117.705 60.4336 117.78 60.77H114.798C114.536 60.77 114.292 60.6765 114.067 60.4896C113.879 60.3028 113.767 60.0785 113.729 59.8169C113.767 60.0785 113.711 60.3028 113.561 60.4896C113.411 60.6765 113.223 60.77 112.998 60.77H110.017C109.942 60.4336 109.961 60.1906 110.073 60.0411C110.186 59.8916 110.298 59.7421 110.411 59.5926C110.523 59.4057 110.617 59.1628 110.692 58.8638C110.767 58.5274 110.748 58.0229 110.636 57.3501V57.294L109.398 50.9589C109.323 50.5851 109.117 50.2674 108.779 50.0058C108.442 49.7068 108.067 49.5573 107.654 49.5573H103.773C103.36 49.5573 102.985 49.7068 102.648 50.0058C102.31 50.2674 102.104 50.5851 102.029 50.9589L100.848 57.294V57.3501C100.735 58.0229 100.698 58.5274 100.735 58.8638C100.81 59.1628 100.904 59.4057 101.016 59.5926C101.166 59.7421 101.279 59.8916 101.354 60.0411C101.466 60.1906 101.504 60.4336 101.466 60.77H98.4849C98.2224 60.77 98.0162 60.6765 97.8662 60.4896C97.7162 60.3028 97.6599 60.0785 97.6974 59.8169C97.6599 60.0785 97.5474 60.3028 97.3599 60.4896C97.1724 60.6765 96.9474 60.77 96.6849 60.77H93.7035C93.741 60.4336 93.8347 60.1906 93.9847 60.0411C94.1347 59.8916 94.3035 59.7234 94.491 59.5366C94.6785 59.3497 94.866 59.1067 95.0535 58.8077C95.241 58.5087 95.4098 58.0415 95.5598 57.4062L98.0912 43.7828C98.1662 43.2595 98.1099 42.7736 97.9224 42.3251C97.7349 41.8766 97.4349 41.5216 97.0224 41.2599C97.6224 40.9983 98.1662 40.8675 98.6537 40.8675L101.691 24.8894C101.804 24.2541 101.823 23.7869 101.748 23.4879C101.673 23.1515 101.579 22.9085 101.466 22.759C101.354 22.5722 101.241 22.404 101.129 22.2545C101.016 22.105 100.998 21.862 101.073 21.5256H104.841C105.404 21.6004 105.685 21.9181 105.685 22.4787C105.685 22.2171 105.76 22.0115 105.91 21.862C106.098 21.6751 106.304 21.563 106.529 21.5256H110.354C110.429 21.862 110.411 22.105 110.298 22.2545C110.223 22.404 110.129 22.5722 110.017 22.759C109.904 22.9085 109.81 23.1515 109.735 23.4879C109.66 23.7869 109.679 24.2541 109.792 24.8894L112.773 40.8675C113.073 40.8675 113.354 40.9049 113.617 40.9796C113.879 41.0544 114.142 41.1478 114.404 41.2599C113.579 41.7832 113.223 42.6241 113.336 43.7828L115.867 57.4062ZM102.366 37.3355C102.441 37.1112 102.479 36.9057 102.479 36.7188C102.516 36.4945 102.554 36.289 102.591 36.1021C102.779 35.2425 102.929 34.4389 103.041 33.6914C103.154 32.9065 103.266 32.1964 103.379 31.561C103.454 31.262 103.491 30.963 103.491 30.664C103.529 30.365 103.566 30.066 103.604 29.7669C103.641 29.5053 103.679 29.2624 103.716 29.0381C103.754 28.8139 103.791 28.6083 103.829 28.4214C103.866 28.2346 103.885 28.0664 103.885 27.9169C103.885 27.73 103.904 27.5805 103.941 27.4684V27.2441L103.885 27.4684C103.848 27.5805 103.81 27.7113 103.773 27.8608C103.735 28.0103 103.698 28.1785 103.66 28.3654C103.585 28.5522 103.529 28.7765 103.491 29.0381C103.454 29.2624 103.398 29.4866 103.323 29.7109C103.248 30.0099 103.173 30.3089 103.098 30.6079C103.06 30.9069 103.004 31.2059 102.929 31.5049C102.741 32.1403 102.554 32.8317 102.366 33.5793C102.216 34.2894 102.048 35.0743 101.86 35.9339C101.86 36.1582 101.841 36.3637 101.804 36.5506C101.766 36.7375 101.71 36.943 101.635 37.1673C101.598 37.3916 101.56 37.6158 101.523 37.8401C101.485 38.0269 101.448 38.2325 101.41 38.4568C101.298 38.8679 101.185 39.2977 101.073 39.7462C100.998 40.1947 100.923 40.6432 100.848 41.0917C100.773 41.5029 100.679 41.9327 100.566 42.3812C100.491 42.8297 100.416 43.2595 100.341 43.6706C100.304 43.7828 100.285 43.8949 100.285 44.007C100.285 44.0818 100.266 44.1752 100.229 44.2873C100.154 44.5863 100.116 44.8106 100.116 44.9601C100.004 45.3339 99.9288 45.745 99.8913 46.1935C99.8163 46.6046 99.7413 47.0158 99.6663 47.4269C99.5912 47.838 99.535 48.2118 99.4975 48.5482C99.385 49.4078 99.2725 50.1179 99.16 50.6786C99.085 50.9776 99.0287 51.2766 98.9912 51.5756C98.9537 51.8746 98.9162 52.1736 98.8787 52.4726C98.8037 52.7342 98.7475 52.9958 98.71 53.2575C98.71 53.4817 98.6912 53.6873 98.6537 53.8742C98.6162 54.061 98.5975 54.2292 98.5975 54.3787C98.5975 54.5282 98.5787 54.6591 98.5412 54.7712C98.5412 54.8459 98.5225 54.902 98.4849 54.9394C98.4849 54.9394 98.4849 54.9581 98.4849 54.9954V55.0515C98.5225 55.0515 98.5412 55.0328 98.5412 54.9954C98.5412 54.9207 98.56 54.8459 98.5975 54.7712C98.635 54.6964 98.6537 54.5843 98.6537 54.4348C98.6912 54.2479 98.7475 54.061 98.8225 53.8742C98.8975 53.6873 98.9537 53.4817 98.9912 53.2575C99.0662 53.0332 99.1412 52.7903 99.2162 52.5286C99.2912 52.267 99.3475 51.9867 99.385 51.6877C99.46 51.3887 99.5162 51.0897 99.5537 50.7907C99.6287 50.4917 99.7038 50.174 99.7788 49.8376C99.8913 49.4639 99.985 49.0901 100.06 48.7163C100.135 48.3426 100.21 47.9501 100.285 47.539C100.398 47.1279 100.51 46.7168 100.623 46.3056C100.66 46.1187 100.698 45.9319 100.735 45.745C100.773 45.5207 100.81 45.3152 100.848 45.1283L101.016 44.4555C101.054 44.3434 101.073 44.2313 101.073 44.1192C101.073 44.007 101.091 43.8949 101.129 43.7828C101.204 43.3716 101.298 42.9605 101.41 42.5494C101.523 42.1009 101.616 41.6524 101.691 41.2039C101.766 40.7927 101.841 40.3629 101.916 39.9144C101.991 39.4659 102.066 39.0361 102.141 38.6249C102.179 38.4007 102.216 38.1764 102.254 37.9522C102.291 37.7279 102.329 37.5224 102.366 37.3355ZM107.148 46.9223C107.56 46.8849 107.879 46.7354 108.104 46.4738C108.367 46.1748 108.46 45.8197 108.385 45.4086L108.048 43.7828C107.898 43.2595 107.635 42.7736 107.26 42.3251C106.923 41.8766 106.51 41.5216 106.023 41.2599C106.473 40.9983 106.96 40.8675 107.485 40.8675L105.685 31.2807L103.885 40.8675C104.373 40.8675 104.879 40.9983 105.404 41.2599C104.879 41.5216 104.429 41.8766 104.054 42.3251C103.716 42.7736 103.491 43.2595 103.379 43.7828L103.098 45.4086C103.023 45.8197 103.098 46.1748 103.323 46.4738C103.548 46.7354 103.848 46.8849 104.223 46.9223H107.148ZM112.829 54.7712C112.829 54.8459 112.829 54.902 112.829 54.9394C112.867 54.9394 112.886 54.9581 112.886 54.9954V54.7712C112.848 54.6591 112.829 54.5282 112.829 54.3787C112.829 54.2292 112.811 54.061 112.773 53.8742C112.736 53.6873 112.698 53.4817 112.661 53.2575C112.661 52.9958 112.623 52.7342 112.548 52.4726C112.511 52.1736 112.473 51.8746 112.436 51.5756C112.398 51.2766 112.342 50.9776 112.267 50.6786C112.154 50.1179 112.042 49.4078 111.929 48.5482C111.854 48.2118 111.779 47.838 111.704 47.4269C111.667 47.0158 111.611 46.6046 111.536 46.1935C111.461 45.9692 111.404 45.7637 111.367 45.5768C111.367 45.3899 111.329 45.1844 111.254 44.9601C111.254 44.8106 111.217 44.5863 111.142 44.2873C111.142 44.1752 111.123 44.0818 111.086 44.007C111.086 43.8949 111.086 43.7828 111.086 43.6706C111.011 43.2595 110.917 42.8297 110.804 42.3812C110.729 41.9327 110.654 41.5029 110.579 41.0917C110.504 40.6432 110.411 40.1947 110.298 39.7462C110.223 39.2977 110.129 38.8679 110.017 38.4568C109.979 38.2325 109.942 38.0269 109.904 37.8401C109.867 37.6158 109.829 37.3916 109.792 37.1673C109.717 36.943 109.66 36.7375 109.623 36.5506C109.585 36.3637 109.548 36.1582 109.51 35.9339C109.323 35.0743 109.135 34.2894 108.948 33.5793C108.798 32.8317 108.667 32.1403 108.554 31.5049C108.479 31.2059 108.404 30.9069 108.329 30.6079C108.254 30.3089 108.179 30.0099 108.104 29.7109C108.029 29.4866 107.954 29.2624 107.879 29.0381C107.842 28.7765 107.785 28.5522 107.71 28.3654C107.673 28.1785 107.635 28.0103 107.598 27.8608C107.56 27.7113 107.523 27.5805 107.485 27.4684L107.429 27.2441V27.4684C107.467 27.6552 107.523 27.9729 107.598 28.4214C107.598 28.6083 107.617 28.8139 107.654 29.0381C107.692 29.2624 107.729 29.5053 107.767 29.7669C107.804 30.066 107.842 30.365 107.879 30.664C107.917 30.963 107.973 31.262 108.048 31.561C108.16 32.1964 108.273 32.9065 108.385 33.6914C108.498 34.4389 108.629 35.2425 108.779 36.1021C108.817 36.289 108.835 36.4945 108.835 36.7188C108.873 36.9057 108.929 37.1112 109.004 37.3355C109.042 37.5224 109.079 37.7279 109.117 37.9522C109.154 38.1764 109.192 38.4007 109.229 38.6249C109.304 39.0361 109.379 39.4659 109.454 39.9144C109.567 40.3629 109.66 40.7927 109.735 41.2039C109.81 41.6524 109.904 42.1009 110.017 42.5494C110.129 42.9605 110.223 43.3716 110.298 43.7828C110.336 43.8949 110.354 44.007 110.354 44.1192C110.354 44.2313 110.373 44.3434 110.411 44.4555L110.579 45.1283C110.617 45.3152 110.654 45.5207 110.692 45.745C110.729 45.9319 110.767 46.1187 110.804 46.3056C110.917 46.7168 111.011 47.1279 111.086 47.539C111.161 47.9501 111.236 48.3426 111.311 48.7163C111.386 49.0901 111.461 49.4639 111.536 49.8376C111.648 50.174 111.742 50.4917 111.817 50.7907C111.892 51.0897 111.967 51.3887 112.042 51.6877C112.117 51.9867 112.192 52.267 112.267 52.5286C112.379 53.0519 112.492 53.5004 112.604 53.8742C112.679 54.061 112.717 54.2479 112.717 54.4348C112.754 54.5843 112.792 54.6964 112.829 54.7712Z" fill="#F4EDE8"/>
<path d="M139.469 63.1246C139.882 63.1994 140.163 63.3302 140.313 63.5171C140.5 63.7039 140.632 63.8908 140.707 64.0777C140.782 64.3019 140.819 64.5449 140.819 64.8065C139.619 64.8065 138.494 64.657 137.444 64.358C136.394 64.059 135.456 63.5731 134.631 62.9004C133.844 62.2276 133.206 61.3493 132.719 60.2654C132.269 59.1815 132.044 57.8547 132.044 56.2849V48.6042C132.044 48.1183 132.025 47.5203 131.987 46.8102C131.95 46.1001 131.819 45.4273 131.594 44.7919C131.369 44.1565 131.012 43.6146 130.525 43.1661C130.075 42.6802 129.4 42.4373 128.5 42.4373H126.193C125.856 42.512 125.556 42.6989 125.293 42.9979C125.068 43.2595 124.956 43.5772 124.956 43.951V57.3501C124.956 58.0229 125.012 58.5274 125.125 58.8638C125.275 59.1628 125.425 59.4057 125.575 59.5926C125.725 59.7421 125.856 59.8916 125.968 60.0411C126.118 60.1906 126.193 60.4336 126.193 60.77H123.212C122.987 60.77 122.781 60.6765 122.593 60.4896C122.406 60.3028 122.312 60.0972 122.312 59.8729C122.312 60.0972 122.218 60.3028 122.031 60.4896C121.881 60.6765 121.674 60.77 121.412 60.77H118.487C118.487 60.4336 118.543 60.1906 118.655 60.0411C118.805 59.8916 118.956 59.7421 119.106 59.5926C119.256 59.4057 119.387 59.1628 119.499 58.8638C119.649 58.5648 119.724 58.0976 119.724 57.4622V43.7828C119.612 42.6241 119.087 41.7832 118.149 41.2599C118.562 40.9983 119.087 40.8675 119.724 40.8675V24.8334C119.724 24.198 119.649 23.7308 119.499 23.4318C119.387 23.1328 119.256 22.9085 119.106 22.759C118.956 22.5722 118.805 22.404 118.655 22.2545C118.543 22.105 118.487 21.862 118.487 21.5256H121.468C121.693 21.5256 121.899 21.6191 122.087 21.806C122.274 21.9555 122.368 22.161 122.368 22.4227C122.368 21.8246 122.668 21.5256 123.268 21.5256H128.556C129.756 21.5256 130.881 21.7499 131.931 22.1984C132.981 22.6469 133.9 23.2636 134.688 24.0485C135.475 24.796 136.094 25.693 136.544 26.7395C136.994 27.786 137.238 28.8886 137.275 30.0473V33.6914C137.275 35.2612 136.9 36.7001 136.15 38.0083C135.4 39.3164 134.388 40.3629 133.112 41.1478C134.388 41.8953 135.4 42.9418 136.15 44.2873C136.9 45.5955 137.275 47.0344 137.275 48.6042V56.0606C137.275 56.8455 137.275 57.6491 137.275 58.4714C137.313 59.2562 137.406 59.9851 137.556 60.6578C137.706 61.2932 137.931 61.8352 138.231 62.2837C138.531 62.7322 138.944 63.0125 139.469 63.1246ZM134.35 32.7383C134.312 32.8131 134.294 32.9065 134.294 33.0186V34.3081C134.256 34.4576 134.237 34.6071 134.237 34.7566C134.237 34.8687 134.237 34.9808 134.237 35.093C134.237 35.1677 134.219 35.2238 134.181 35.2612C134.181 35.2985 134.181 35.3546 134.181 35.4293V35.7657C134.144 35.8405 134.125 35.9339 134.125 36.046C134.125 36.1208 134.106 36.1955 134.069 36.2703C134.069 36.345 134.05 36.4011 134.012 36.4385V36.5506L133.956 36.6627C133.956 36.6627 133.994 36.644 134.069 36.6067V36.5506L134.125 36.4945C134.162 36.4572 134.181 36.4385 134.181 36.4385C134.181 36.4011 134.2 36.3637 134.237 36.3264C134.275 36.2516 134.312 36.1769 134.35 36.1021C134.387 35.99 134.425 35.8965 134.462 35.8218C134.5 35.747 134.519 35.7097 134.519 35.7097C134.519 35.6723 134.538 35.6162 134.575 35.5415C134.613 35.4667 134.631 35.4107 134.631 35.3733C134.631 35.2985 134.65 35.2238 134.688 35.149C134.725 35.0743 134.744 35.0182 134.744 34.9808C134.744 34.9435 134.763 34.8874 134.8 34.8126C134.8 34.7379 134.8 34.6818 134.8 34.6445C134.838 34.5697 134.856 34.495 134.856 34.4202C134.894 34.2707 134.913 34.1212 134.913 33.9717C134.95 33.8222 134.988 33.6727 135.025 33.5232C135.063 33.4111 135.081 33.2429 135.081 33.0186C135.081 32.9439 135.081 32.8691 135.081 32.7944C135.119 32.7196 135.138 32.6449 135.138 32.5701V30.6079C135.138 30.3836 135.119 30.2155 135.081 30.1033V29.8791C135.081 29.8043 135.063 29.7669 135.025 29.7669C135.025 29.7296 135.025 29.6735 135.025 29.5988C135.025 29.4119 134.988 29.1316 134.913 28.7578C134.875 28.6831 134.856 28.6083 134.856 28.5336C134.856 28.4588 134.838 28.3841 134.8 28.3093C134.8 28.2719 134.781 28.2532 134.744 28.2532C134.744 28.2159 134.744 28.1785 134.744 28.1411C134.744 28.1037 134.725 28.0851 134.688 28.0851C134.688 28.0477 134.688 28.0103 134.688 27.9729C134.65 27.8982 134.631 27.8421 134.631 27.8047C134.631 27.7674 134.613 27.7113 134.575 27.6365C134.538 27.5618 134.519 27.5057 134.519 27.4684C134.519 27.431 134.5 27.3749 134.462 27.3002C134.425 27.2628 134.406 27.2254 134.406 27.188C134.406 27.1507 134.387 27.1133 134.35 27.0759C134.275 26.9264 134.237 26.8517 134.237 26.8517C134.2 26.8143 134.181 26.7956 134.181 26.7956C134.181 26.7582 134.162 26.7208 134.125 26.6835C134.087 26.6461 134.069 26.6087 134.069 26.5713C134.031 26.534 134.012 26.4966 134.012 26.4592H133.956C133.956 26.4592 133.975 26.4966 134.012 26.5713V26.6835C134.05 26.7208 134.069 26.7956 134.069 26.9077C134.069 26.9451 134.069 26.9825 134.069 27.0198C134.106 27.0198 134.125 27.0572 134.125 27.132C134.125 27.2441 134.144 27.3375 134.181 27.4123V27.6926C134.181 27.7674 134.181 27.8234 134.181 27.8608C134.219 27.8982 134.237 27.9542 134.237 28.029C134.237 28.3654 134.256 28.627 134.294 28.8139V29.7109C134.331 29.8978 134.35 30.1968 134.35 30.6079V32.7383ZM122.762 38.5128C122.762 38.3259 122.743 38.1204 122.706 37.8961C122.706 37.6719 122.706 37.4476 122.706 37.2234V35.99C122.668 35.1677 122.649 34.3828 122.649 33.6353C122.649 32.8878 122.631 32.1777 122.593 31.5049C122.556 31.2059 122.537 30.9069 122.537 30.6079C122.537 30.3089 122.518 30.0286 122.481 29.7669C122.481 29.4679 122.462 29.2063 122.424 28.9821C122.424 28.7578 122.424 28.5522 122.424 28.3654C122.424 28.1785 122.406 28.0103 122.368 27.8608C122.368 27.7113 122.368 27.5805 122.368 27.4684V27.188C122.331 27.188 122.312 27.2067 122.312 27.2441V27.4684C122.312 27.5805 122.293 27.7113 122.256 27.8608C122.256 28.0103 122.256 28.1785 122.256 28.3654C122.256 28.5522 122.237 28.7578 122.199 28.9821C122.199 29.2063 122.199 29.4679 122.199 29.7669C122.162 30.0286 122.143 30.3089 122.143 30.6079C122.143 30.9069 122.124 31.2059 122.087 31.5049C122.049 32.1777 122.031 32.8878 122.031 33.6353C122.031 34.3828 122.012 35.1677 121.974 35.99V37.2234C121.974 37.4476 121.956 37.6719 121.918 37.8961C121.918 38.1204 121.918 38.3259 121.918 38.5128V43.7267C121.918 44.0257 121.937 44.25 121.974 44.3995V46.2496C121.974 46.6607 121.974 47.0718 121.974 47.483C122.012 47.8567 122.031 48.2305 122.031 48.6042C122.031 49.0153 122.031 49.3891 122.031 49.7255C122.068 50.0619 122.087 50.3982 122.087 50.7346C122.124 51.071 122.143 51.3887 122.143 51.6877C122.143 51.9493 122.162 52.2296 122.199 52.5286C122.199 52.7903 122.199 53.0332 122.199 53.2575C122.237 53.4817 122.256 53.6873 122.256 53.8742C122.256 54.061 122.256 54.2479 122.256 54.4348C122.293 54.5843 122.312 54.6964 122.312 54.7712V55.0515C122.312 55.0889 122.331 55.1076 122.368 55.1076V54.7712C122.368 54.6964 122.368 54.5843 122.368 54.4348C122.406 54.2479 122.424 54.061 122.424 53.8742C122.424 53.6873 122.424 53.4817 122.424 53.2575C122.462 53.0332 122.481 52.7903 122.481 52.5286C122.518 52.2296 122.537 51.9493 122.537 51.6877C122.537 51.3887 122.556 51.071 122.593 50.7346C122.593 50.3982 122.593 50.0619 122.593 49.7255C122.631 49.3891 122.649 49.0153 122.649 48.6042C122.649 48.2305 122.649 47.8567 122.649 47.483C122.687 47.0718 122.706 46.6607 122.706 46.2496V45.0162C122.706 44.7172 122.724 44.5116 122.762 44.3995V38.5128ZM132.044 30.2715C132.044 29.7856 132.025 29.1876 131.987 28.4775C131.95 27.7674 131.819 27.0946 131.594 26.4592C131.369 25.8238 131.012 25.2819 130.525 24.8334C130.075 24.3475 129.4 24.1046 128.5 24.1046H126.475C126.062 24.1419 125.706 24.3101 125.406 24.6091C125.106 24.9081 124.956 25.2632 124.956 25.6743V38.2886C124.956 38.6997 125.106 39.0548 125.406 39.3538C125.706 39.6528 126.062 39.8023 126.475 39.8023H128.5C129.4 39.8023 130.075 39.578 130.525 39.1295C131.012 38.681 131.369 38.1391 131.594 37.5037C131.819 36.8309 131.95 36.1582 131.987 35.4854C132.025 34.7753 132.044 34.1773 132.044 33.6914V30.2715ZM135.813 60.9942C135.813 60.9942 135.794 60.9755 135.756 60.9381L135.7 60.8821C135.663 60.8073 135.625 60.7326 135.588 60.6578C135.588 60.5831 135.55 60.5083 135.475 60.4336C135.438 60.3214 135.4 60.2093 135.363 60.0972C135.325 59.9477 135.288 59.7795 135.25 59.5926C135.175 59.2189 135.138 58.8638 135.138 58.5274C135.1 58.3405 135.081 58.1537 135.081 57.9668C135.081 57.7425 135.081 57.4996 135.081 57.238V54.2666C135.081 54.005 135.081 53.7434 135.081 53.4817C135.081 53.2201 135.1 52.9398 135.138 52.6408C135.138 52.3791 135.138 52.1175 135.138 51.8559C135.138 51.5943 135.119 51.3326 135.081 51.071V50.2861C135.081 49.9124 135.063 49.6507 135.025 49.5012C135.025 49.2396 135.006 48.9967 134.969 48.7724C134.969 48.5108 134.95 48.2678 134.913 48.0436C134.838 47.5203 134.763 47.0718 134.688 46.6981C134.65 46.5112 134.613 46.343 134.575 46.1935C134.538 46.0066 134.481 45.8197 134.406 45.6329C134.331 45.446 134.275 45.2965 134.237 45.1844C134.2 45.0722 134.144 44.9601 134.069 44.848C133.994 44.7358 133.937 44.6424 133.9 44.5677C133.862 44.4929 133.825 44.4182 133.787 44.3434C133.75 44.3434 133.712 44.3247 133.675 44.2873C133.637 44.2873 133.619 44.2687 133.619 44.2313L133.675 44.2873C133.675 44.3247 133.694 44.3621 133.731 44.3995C133.731 44.4368 133.731 44.4742 133.731 44.5116C133.769 44.5116 133.787 44.549 133.787 44.6237C133.825 44.6611 133.844 44.6985 133.844 44.7358C133.844 44.7732 133.862 44.8293 133.9 44.904C133.937 45.0535 133.994 45.3152 134.069 45.6889C134.106 45.8758 134.125 46.0627 134.125 46.2496C134.162 46.4364 134.2 46.6233 134.237 46.8102C134.237 46.9971 134.237 47.2026 134.237 47.4269C134.275 47.6138 134.294 47.838 134.294 48.0996V55.0515C134.294 55.201 134.294 55.3318 134.294 55.4439C134.331 55.5561 134.35 55.6869 134.35 55.8364C134.35 56.098 134.35 56.3596 134.35 56.6213C134.387 56.8455 134.425 57.0698 134.462 57.294C134.5 57.5183 134.519 57.7425 134.519 57.9668C134.556 58.191 134.594 58.3966 134.631 58.5835C134.706 58.8077 134.763 59.0133 134.8 59.2002C134.838 59.3497 134.894 59.5179 134.969 59.7047C135.044 59.8916 135.1 60.0411 135.138 60.1533C135.175 60.2654 135.231 60.3775 135.306 60.4896L135.419 60.6018C135.456 60.6391 135.475 60.6765 135.475 60.7139C135.475 60.7139 135.494 60.7326 135.531 60.77L135.756 60.9942H135.813Z" fill="#F4EDE8"/>
<path d="M156.336 33.6914C156.336 35.2612 155.961 36.7001 155.211 38.0083C154.461 39.3164 153.448 40.3629 152.173 41.1478C153.448 41.8953 154.461 42.9418 155.211 44.2873C155.961 45.5955 156.336 47.0344 156.336 48.6042V52.2483C156.299 53.4444 156.055 54.5656 155.605 55.6121C155.155 56.6213 154.536 57.5183 153.748 58.3032C152.961 59.0507 152.042 59.6487 150.992 60.0972C149.942 60.5457 148.817 60.77 147.617 60.77H142.273C142.048 60.77 141.842 60.6765 141.654 60.4896C141.467 60.3028 141.373 60.0972 141.373 59.8729C141.373 60.0972 141.279 60.3028 141.092 60.4896C140.942 60.6765 140.735 60.77 140.473 60.77H137.548C137.548 60.4336 137.604 60.1906 137.716 60.0411C137.866 59.8916 138.016 59.7421 138.166 59.5926C138.316 59.4057 138.448 59.1628 138.56 58.8638C138.71 58.5648 138.785 58.0976 138.785 57.4622V43.7828C138.673 42.6241 138.148 41.7832 137.21 41.2599C137.623 40.9983 138.148 40.8675 138.785 40.8675V24.8334C138.785 24.198 138.71 23.7308 138.56 23.4318C138.448 23.1328 138.316 22.9085 138.166 22.759C138.016 22.5722 137.866 22.404 137.716 22.2545C137.604 22.105 137.548 21.862 137.548 21.5256H140.529C140.754 21.5256 140.96 21.6191 141.148 21.806C141.335 21.9555 141.429 22.161 141.429 22.4227C141.429 21.8246 141.729 21.5256 142.329 21.5256H147.617C148.817 21.5256 149.942 21.7499 150.992 22.1984C152.042 22.6469 152.961 23.2636 153.748 24.0485C154.536 24.796 155.155 25.693 155.605 26.7395C156.055 27.786 156.299 28.8886 156.336 30.0473V33.6914ZM141.823 38.5128C141.823 38.3259 141.804 38.1204 141.767 37.8961C141.767 37.6719 141.767 37.4476 141.767 37.2234V35.99C141.729 35.1677 141.71 34.3828 141.71 33.6353C141.71 32.8878 141.692 32.1777 141.654 31.5049C141.617 31.2059 141.598 30.9069 141.598 30.6079C141.598 30.3089 141.579 30.0286 141.542 29.7669C141.542 29.4679 141.523 29.2063 141.485 28.9821C141.485 28.7578 141.485 28.5522 141.485 28.3654C141.485 28.1785 141.467 28.0103 141.429 27.8608C141.429 27.7113 141.429 27.5805 141.429 27.4684V27.188C141.392 27.188 141.373 27.2067 141.373 27.2441V27.4684C141.373 27.5805 141.354 27.7113 141.317 27.8608C141.317 28.0103 141.317 28.1785 141.317 28.3654C141.317 28.5522 141.298 28.7578 141.26 28.9821C141.26 29.2063 141.26 29.4679 141.26 29.7669C141.223 30.0286 141.204 30.3089 141.204 30.6079C141.204 30.9069 141.185 31.2059 141.148 31.5049C141.11 32.1777 141.092 32.8878 141.092 33.6353C141.092 34.3828 141.073 35.1677 141.035 35.99V37.2234C141.035 37.4476 141.017 37.6719 140.979 37.8961C140.979 38.1204 140.979 38.3259 140.979 38.5128V43.7267C140.979 44.0257 140.998 44.25 141.035 44.3995V46.2496C141.035 46.6607 141.035 47.0718 141.035 47.483C141.073 47.8567 141.092 48.2305 141.092 48.6042C141.092 49.0153 141.092 49.3891 141.092 49.7255C141.129 50.0619 141.148 50.3982 141.148 50.7346C141.185 51.071 141.204 51.3887 141.204 51.6877C141.204 51.9493 141.223 52.2296 141.26 52.5286C141.26 52.7903 141.26 53.0332 141.26 53.2575C141.298 53.4817 141.317 53.6873 141.317 53.8742C141.317 54.061 141.317 54.2479 141.317 54.4348C141.354 54.5843 141.373 54.6964 141.373 54.7712V55.0515C141.373 55.0889 141.392 55.1076 141.429 55.1076V54.7712C141.429 54.6964 141.429 54.5843 141.429 54.4348C141.467 54.2479 141.485 54.061 141.485 53.8742C141.485 53.6873 141.485 53.4817 141.485 53.2575C141.523 53.0332 141.542 52.7903 141.542 52.5286C141.579 52.2296 141.598 51.9493 141.598 51.6877C141.598 51.3887 141.617 51.071 141.654 50.7346C141.654 50.3982 141.654 50.0619 141.654 49.7255C141.692 49.3891 141.71 49.0153 141.71 48.6042C141.71 48.2305 141.71 47.8567 141.71 47.483C141.748 47.0718 141.767 46.6607 141.767 46.2496V45.0162C141.767 44.7172 141.785 44.5116 141.823 44.3995V38.5128ZM153.411 51.5195C153.373 51.5943 153.355 51.6877 153.355 51.7998V53.0893C153.317 53.2388 153.298 53.3883 153.298 53.5378C153.298 53.6499 153.298 53.762 153.298 53.8742C153.298 53.9489 153.28 54.005 153.242 54.0424C153.242 54.0797 153.242 54.1358 153.242 54.2105V54.5469C153.205 54.6217 153.186 54.7151 153.186 54.8272C153.186 54.902 153.167 54.9767 153.13 55.0515C153.13 55.1262 153.111 55.1823 153.073 55.2197V55.3318L153.017 55.4439C153.017 55.4439 153.055 55.4253 153.13 55.3879V55.3318L153.186 55.2757C153.223 55.2384 153.242 55.2197 153.242 55.2197C153.242 55.1823 153.261 55.1449 153.298 55.1076C153.336 55.0328 153.373 54.9581 153.411 54.8833C153.448 54.7712 153.486 54.6777 153.523 54.603C153.561 54.5282 153.58 54.4909 153.58 54.4909C153.58 54.4535 153.598 54.3974 153.636 54.3227C153.673 54.2479 153.692 54.1919 153.692 54.1545C153.692 54.1171 153.711 54.061 153.748 53.9863C153.786 53.9115 153.805 53.8555 153.805 53.8181C153.805 53.7434 153.823 53.6686 153.861 53.5938C153.861 53.5191 153.861 53.463 153.861 53.4257C153.898 53.3509 153.917 53.2762 153.917 53.2014C153.955 53.0519 153.973 52.9024 153.973 52.7529C154.011 52.6034 154.048 52.4539 154.086 52.3044C154.123 52.1923 154.142 52.0241 154.142 51.7998C154.142 51.7251 154.142 51.6503 154.142 51.5756C154.18 51.5008 154.198 51.4261 154.198 51.3513V49.3891C154.198 49.1648 154.18 48.9967 154.142 48.8845V48.6603C154.142 48.5855 154.123 48.5482 154.086 48.5482C154.086 48.5108 154.086 48.4734 154.086 48.436C154.086 48.2492 154.067 48.0996 154.03 47.9875C154.03 47.838 154.011 47.6885 153.973 47.539C153.936 47.4643 153.917 47.3895 153.917 47.3148C153.917 47.24 153.898 47.1653 153.861 47.0905C153.861 47.0531 153.842 47.0344 153.805 47.0344C153.805 46.9971 153.805 46.9597 153.805 46.9223C153.805 46.8849 153.786 46.8663 153.748 46.8663C153.748 46.8289 153.748 46.7915 153.748 46.7541C153.711 46.6794 153.692 46.6233 153.692 46.5859C153.692 46.5486 153.673 46.4925 153.636 46.4177C153.598 46.343 153.58 46.2869 153.58 46.2496C153.58 46.2122 153.561 46.1561 153.523 46.0814C153.486 46.044 153.467 46.0066 153.467 45.9692C153.467 45.9319 153.448 45.8945 153.411 45.8571C153.336 45.7076 153.298 45.6329 153.298 45.6329C153.261 45.5955 153.242 45.5768 153.242 45.5768C153.242 45.5394 153.223 45.502 153.186 45.4647C153.148 45.4273 153.13 45.3899 153.13 45.3525L153.017 45.2404C153.017 45.2404 153.036 45.2778 153.073 45.3525V45.4647C153.111 45.502 153.13 45.5768 153.13 45.6889C153.13 45.7263 153.13 45.7637 153.13 45.8011C153.167 45.8011 153.186 45.8384 153.186 45.9132C153.186 46.0253 153.205 46.1187 153.242 46.1935V46.4738C153.242 46.5486 153.242 46.6046 153.242 46.642C153.28 46.6794 153.298 46.7354 153.298 46.8102C153.298 47.1466 153.317 47.4082 153.355 47.5951V48.4921C153.392 48.679 153.411 48.978 153.411 49.3891V51.5195ZM151.105 48.6042C151.105 48.1183 151.086 47.5203 151.048 46.8102C151.011 46.1001 150.88 45.4273 150.654 44.7919C150.429 44.1565 150.073 43.6146 149.586 43.1661C149.136 42.6802 148.461 42.4373 147.561 42.4373H145.535C145.123 42.4746 144.767 42.6428 144.467 42.9418C144.167 43.2408 144.017 43.5959 144.017 44.007V56.6213C144.017 57.0324 144.167 57.3875 144.467 57.6865C144.767 57.9855 145.123 58.135 145.535 58.135H147.561C148.461 58.135 149.136 57.9107 149.586 57.4622C150.073 57.0137 150.429 56.4718 150.654 55.8364C150.88 55.1636 151.011 54.4909 151.048 53.8181C151.086 53.108 151.105 52.51 151.105 52.0241V48.6042ZM151.105 30.2715C151.105 29.7856 151.086 29.1876 151.048 28.4775C151.011 27.7674 150.88 27.0946 150.654 26.4592C150.429 25.8238 150.073 25.2819 149.586 24.8334C149.136 24.3475 148.461 24.1046 147.561 24.1046H145.535C145.123 24.1419 144.767 24.3101 144.467 24.6091C144.167 24.9081 144.017 25.2632 144.017 25.6743V38.2886C144.017 38.6997 144.167 39.0548 144.467 39.3538C144.767 39.6528 145.123 39.8023 145.535 39.8023H147.561C148.461 39.8023 149.136 39.578 149.586 39.1295C150.073 38.681 150.429 38.1391 150.654 37.5037C150.88 36.8309 151.011 36.1582 151.048 35.4854C151.086 34.7753 151.105 34.1773 151.105 33.6914V30.2715ZM153.523 35.8218C153.561 35.747 153.58 35.7097 153.58 35.7097C153.58 35.6723 153.598 35.6162 153.636 35.5415C153.673 35.4667 153.692 35.4107 153.692 35.3733C153.692 35.2985 153.711 35.2238 153.748 35.149C153.786 35.0743 153.805 35.0182 153.805 34.9808C153.805 34.9435 153.823 34.8874 153.861 34.8126C153.861 34.7379 153.861 34.6818 153.861 34.6445C153.898 34.5697 153.917 34.495 153.917 34.4202C153.955 34.2707 153.973 34.1212 153.973 33.9717C154.011 33.8222 154.048 33.6727 154.086 33.5232C154.123 33.4111 154.142 33.2429 154.142 33.0186C154.142 32.9439 154.142 32.8691 154.142 32.7944C154.18 32.7196 154.198 32.6449 154.198 32.5701V30.6079C154.198 30.3836 154.18 30.2155 154.142 30.1033V29.8791C154.142 29.8043 154.123 29.7669 154.086 29.7669C154.086 29.7296 154.086 29.6735 154.086 29.5988C154.086 29.4119 154.048 29.1316 153.973 28.7578C153.936 28.6831 153.917 28.6083 153.917 28.5336C153.917 28.4588 153.898 28.3841 153.861 28.3093C153.861 28.2719 153.842 28.2532 153.805 28.2532C153.805 28.2159 153.805 28.1785 153.805 28.1411C153.805 28.1037 153.786 28.0851 153.748 28.0851C153.748 28.0477 153.748 28.0103 153.748 27.9729C153.711 27.8982 153.692 27.8421 153.692 27.8047C153.692 27.7674 153.673 27.7113 153.636 27.6365C153.598 27.5618 153.58 27.5057 153.58 27.4684C153.58 27.431 153.561 27.3749 153.523 27.3002C153.486 27.2628 153.467 27.2254 153.467 27.188C153.467 27.1507 153.448 27.1133 153.411 27.0759C153.336 26.9264 153.298 26.8517 153.298 26.8517C153.261 26.8143 153.242 26.7956 153.242 26.7956C153.242 26.7582 153.223 26.7208 153.186 26.6835C153.148 26.6461 153.13 26.6087 153.13 26.5713C153.092 26.534 153.073 26.4966 153.073 26.4592H153.017C153.017 26.4592 153.036 26.4966 153.073 26.5713V26.6835C153.111 26.7208 153.13 26.7956 153.13 26.9077C153.13 26.9451 153.13 26.9825 153.13 27.0198C153.167 27.0198 153.186 27.0572 153.186 27.132C153.186 27.2441 153.205 27.3375 153.242 27.4123V27.6926C153.242 27.7674 153.242 27.8234 153.242 27.8608C153.28 27.8982 153.298 27.9542 153.298 28.029C153.298 28.3654 153.317 28.627 153.355 28.8139V29.7109C153.392 29.8978 153.411 30.1968 153.411 30.6079V32.7383C153.373 32.8131 153.355 32.9065 153.355 33.0186V34.3081C153.317 34.4576 153.298 34.6071 153.298 34.7566C153.298 34.8687 153.298 34.9808 153.298 35.093C153.298 35.1677 153.28 35.2238 153.242 35.2612C153.242 35.2985 153.242 35.3546 153.242 35.4293V35.7657C153.205 35.8405 153.186 35.9339 153.186 36.046C153.186 36.1208 153.167 36.1955 153.13 36.2703C153.13 36.345 153.111 36.4011 153.073 36.4385V36.5506L153.017 36.6627C153.017 36.6627 153.055 36.644 153.13 36.6067V36.5506L153.186 36.4945C153.223 36.4572 153.242 36.4385 153.242 36.4385C153.242 36.4011 153.261 36.3637 153.298 36.3264C153.336 36.2516 153.373 36.1769 153.411 36.1021C153.448 35.99 153.486 35.8965 153.523 35.8218Z" fill="#F4EDE8"/>
<path d="M175.509 57.3501C175.509 58.0229 175.566 58.5274 175.678 58.8638C175.828 59.1628 175.978 59.4057 176.128 59.5926C176.278 59.7421 176.409 59.8916 176.522 60.0411C176.672 60.1906 176.747 60.4336 176.747 60.77H161.446C161.221 60.77 161.015 60.6765 160.827 60.4896C160.64 60.3028 160.546 60.0972 160.546 59.8729C160.546 60.0972 160.452 60.3028 160.265 60.4896C160.115 60.6765 159.909 60.77 159.646 60.77H156.721C156.721 60.4336 156.777 60.1906 156.89 60.0411C157.04 59.8916 157.19 59.7421 157.34 59.5926C157.49 59.4057 157.621 59.1628 157.734 58.8638C157.884 58.5648 157.959 58.0976 157.959 57.4622V43.7828C157.846 42.6241 157.321 41.7832 156.383 41.2599C156.796 40.9983 157.321 40.8675 157.959 40.8675V24.8334C157.959 24.198 157.884 23.7308 157.734 23.4318C157.621 23.1328 157.49 22.9085 157.34 22.759C157.19 22.5722 157.04 22.404 156.89 22.2545C156.777 22.105 156.721 21.862 156.721 21.5256H159.702C159.927 21.5256 160.134 21.6191 160.321 21.806C160.509 21.9555 160.602 22.161 160.602 22.4227C160.602 21.8246 160.902 21.5256 161.502 21.5256H176.747C176.747 21.862 176.672 22.105 176.522 22.2545C176.409 22.404 176.278 22.5722 176.128 22.759C175.978 22.9085 175.828 23.1515 175.678 23.4879C175.566 23.7869 175.509 24.2727 175.509 24.9455V32.4019C174.197 32.4019 173.184 32.159 172.472 31.6731C171.797 31.1498 171.29 30.5705 170.953 29.9351C170.54 29.225 170.315 28.3841 170.278 27.4123V25.6743C170.278 25.2632 170.128 24.9081 169.828 24.6091C169.528 24.3101 169.172 24.1419 168.759 24.1046H164.709C164.296 24.1419 163.94 24.3101 163.64 24.6091C163.34 24.9081 163.19 25.2632 163.19 25.6743V38.2886C163.19 38.6997 163.34 39.0548 163.64 39.3538C163.94 39.6528 164.296 39.8023 164.709 39.8023H165.103C165.515 39.8023 165.853 39.6528 166.115 39.3538C166.415 39.0548 166.565 38.6997 166.565 38.2886V38.2325C166.603 37.6719 166.753 37.186 167.015 36.7749C167.24 36.4011 167.578 36.0647 168.028 35.7657C168.478 35.4667 169.134 35.3172 169.997 35.3172V46.9223C169.134 46.9223 168.478 46.7728 168.028 46.4738C167.578 46.1748 167.24 45.8384 167.015 45.4647C166.753 45.0535 166.603 44.5677 166.565 44.007C166.565 43.5959 166.415 43.2408 166.115 42.9418C165.853 42.6428 165.515 42.4746 165.103 42.4373H164.709C164.296 42.4746 163.94 42.6428 163.64 42.9418C163.34 43.2408 163.19 43.5959 163.19 44.007V56.6213C163.19 57.0324 163.34 57.3875 163.64 57.6865C163.94 57.9855 164.296 58.135 164.709 58.135H168.759C169.172 58.135 169.528 57.9855 169.828 57.6865C170.128 57.3875 170.278 57.0324 170.278 56.6213V54.8272C170.315 53.8929 170.54 53.0706 170.953 52.3605C171.29 51.7251 171.797 51.1458 172.472 50.6225C173.184 50.0992 174.197 49.8376 175.509 49.8376V57.3501ZM160.996 38.5128C160.996 38.3259 160.977 38.1204 160.94 37.8961C160.94 37.6719 160.94 37.4476 160.94 37.2234V35.99C160.902 35.1677 160.884 34.3828 160.884 33.6353C160.884 32.8878 160.865 32.1777 160.827 31.5049C160.79 31.2059 160.771 30.9069 160.771 30.6079C160.771 30.3089 160.752 30.0286 160.715 29.7669C160.715 29.4679 160.696 29.2063 160.659 28.9821C160.659 28.7578 160.659 28.5522 160.659 28.3654C160.659 28.1785 160.64 28.0103 160.602 27.8608C160.602 27.7113 160.602 27.5805 160.602 27.4684V27.188C160.565 27.188 160.546 27.2067 160.546 27.2441V27.4684C160.546 27.5805 160.527 27.7113 160.49 27.8608C160.49 28.0103 160.49 28.1785 160.49 28.3654C160.49 28.5522 160.471 28.7578 160.434 28.9821C160.434 29.2063 160.434 29.4679 160.434 29.7669C160.396 30.0286 160.377 30.3089 160.377 30.6079C160.377 30.9069 160.359 31.2059 160.321 31.5049C160.284 32.1777 160.265 32.8878 160.265 33.6353C160.265 34.3828 160.246 35.1677 160.209 35.99V37.2234C160.209 37.4476 160.19 37.6719 160.152 37.8961C160.152 38.1204 160.152 38.3259 160.152 38.5128V43.7267C160.152 44.0257 160.171 44.25 160.209 44.3995V46.2496C160.209 46.6607 160.209 47.0718 160.209 47.483C160.246 47.8567 160.265 48.2305 160.265 48.6042C160.265 49.0153 160.265 49.3891 160.265 49.7255C160.302 50.0619 160.321 50.3982 160.321 50.7346C160.359 51.071 160.377 51.3887 160.377 51.6877C160.377 51.9493 160.396 52.2296 160.434 52.5286C160.434 52.7903 160.434 53.0332 160.434 53.2575C160.471 53.4817 160.49 53.6873 160.49 53.8742C160.49 54.061 160.49 54.2479 160.49 54.4348C160.527 54.5843 160.546 54.6964 160.546 54.7712V55.0515C160.546 55.0889 160.565 55.1076 160.602 55.1076V54.7712C160.602 54.6964 160.602 54.5843 160.602 54.4348C160.64 54.2479 160.659 54.061 160.659 53.8742C160.659 53.6873 160.659 53.4817 160.659 53.2575C160.696 53.0332 160.715 52.7903 160.715 52.5286C160.752 52.2296 160.771 51.9493 160.771 51.6877C160.771 51.3887 160.79 51.071 160.827 50.7346C160.827 50.3982 160.827 50.0619 160.827 49.7255C160.865 49.3891 160.884 49.0153 160.884 48.6042C160.884 48.2305 160.884 47.8567 160.884 47.483C160.921 47.0718 160.94 46.6607 160.94 46.2496V45.0162C160.94 44.7172 160.959 44.5116 160.996 44.3995V38.5128Z" fill="#F4EDE8"/>
<path d="M198.139 63.1246C198.551 63.1994 198.833 63.3302 198.983 63.5171C199.17 63.7039 199.301 63.8908 199.376 64.0777C199.451 64.3019 199.489 64.5449 199.489 64.8065C198.289 64.8065 197.164 64.657 196.114 64.358C195.064 64.059 194.126 63.5731 193.301 62.9004C192.514 62.2276 191.876 61.3493 191.388 60.2654C190.938 59.1815 190.713 57.8547 190.713 56.2849V48.6042C190.713 48.1183 190.695 47.5203 190.657 46.8102C190.62 46.1001 190.488 45.4273 190.263 44.7919C190.038 44.1565 189.682 43.6146 189.195 43.1661C188.745 42.6802 188.07 42.4373 187.17 42.4373H184.863C184.526 42.512 184.226 42.6989 183.963 42.9979C183.738 43.2595 183.626 43.5772 183.626 43.951V57.3501C183.626 58.0229 183.682 58.5274 183.794 58.8638C183.944 59.1628 184.094 59.4057 184.244 59.5926C184.394 59.7421 184.526 59.8916 184.638 60.0411C184.788 60.1906 184.863 60.4336 184.863 60.77H181.882C181.657 60.77 181.45 60.6765 181.263 60.4896C181.075 60.3028 180.982 60.0972 180.982 59.8729C180.982 60.0972 180.888 60.3028 180.7 60.4896C180.55 60.6765 180.344 60.77 180.082 60.77H177.157C177.157 60.4336 177.213 60.1906 177.325 60.0411C177.475 59.8916 177.625 59.7421 177.775 59.5926C177.925 59.4057 178.057 59.1628 178.169 58.8638C178.319 58.5648 178.394 58.0976 178.394 57.4622V43.7828C178.282 42.6241 177.757 41.7832 176.819 41.2599C177.232 40.9983 177.757 40.8675 178.394 40.8675V24.8334C178.394 24.198 178.319 23.7308 178.169 23.4318C178.057 23.1328 177.925 22.9085 177.775 22.759C177.625 22.5722 177.475 22.404 177.325 22.2545C177.213 22.105 177.157 21.862 177.157 21.5256H180.138C180.363 21.5256 180.569 21.6191 180.757 21.806C180.944 21.9555 181.038 22.161 181.038 22.4227C181.038 21.8246 181.338 21.5256 181.938 21.5256H187.226C188.426 21.5256 189.551 21.7499 190.601 22.1984C191.651 22.6469 192.57 23.2636 193.357 24.0485C194.145 24.796 194.764 25.693 195.214 26.7395C195.664 27.786 195.907 28.8886 195.945 30.0473V33.6914C195.945 35.2612 195.57 36.7001 194.82 38.0083C194.07 39.3164 193.057 40.3629 191.782 41.1478C193.057 41.8953 194.07 42.9418 194.82 44.2873C195.57 45.5955 195.945 47.0344 195.945 48.6042V56.0606C195.945 56.8455 195.945 57.6491 195.945 58.4714C195.982 59.2562 196.076 59.9851 196.226 60.6578C196.376 61.2932 196.601 61.8352 196.901 62.2837C197.201 62.7322 197.614 63.0125 198.139 63.1246ZM193.02 32.7383C192.982 32.8131 192.964 32.9065 192.964 33.0186V34.3081C192.926 34.4576 192.907 34.6071 192.907 34.7566C192.907 34.8687 192.907 34.9808 192.907 35.093C192.907 35.1677 192.889 35.2238 192.851 35.2612C192.851 35.2985 192.851 35.3546 192.851 35.4293V35.7657C192.814 35.8405 192.795 35.9339 192.795 36.046C192.795 36.1208 192.776 36.1955 192.739 36.2703C192.739 36.345 192.72 36.4011 192.682 36.4385V36.5506L192.626 36.6627C192.626 36.6627 192.664 36.644 192.739 36.6067V36.5506L192.795 36.4945C192.832 36.4572 192.851 36.4385 192.851 36.4385C192.851 36.4011 192.87 36.3637 192.907 36.3264C192.945 36.2516 192.982 36.1769 193.02 36.1021C193.057 35.99 193.095 35.8965 193.132 35.8218C193.17 35.747 193.189 35.7097 193.189 35.7097C193.189 35.6723 193.207 35.6162 193.245 35.5415C193.282 35.4667 193.301 35.4107 193.301 35.3733C193.301 35.2985 193.32 35.2238 193.357 35.149C193.395 35.0743 193.414 35.0182 193.414 34.9808C193.414 34.9435 193.432 34.8874 193.47 34.8126C193.47 34.7379 193.47 34.6818 193.47 34.6445C193.507 34.5697 193.526 34.495 193.526 34.4202C193.564 34.2707 193.582 34.1212 193.582 33.9717C193.62 33.8222 193.657 33.6727 193.695 33.5232C193.732 33.4111 193.751 33.2429 193.751 33.0186C193.751 32.9439 193.751 32.8691 193.751 32.7944C193.789 32.7196 193.807 32.6449 193.807 32.5701V30.6079C193.807 30.3836 193.789 30.2155 193.751 30.1033V29.8791C193.751 29.8043 193.732 29.7669 193.695 29.7669C193.695 29.7296 193.695 29.6735 193.695 29.5988C193.695 29.4119 193.657 29.1316 193.582 28.7578C193.545 28.6831 193.526 28.6083 193.526 28.5336C193.526 28.4588 193.507 28.3841 193.47 28.3093C193.47 28.2719 193.451 28.2532 193.414 28.2532C193.414 28.2159 193.414 28.1785 193.414 28.1411C193.414 28.1037 193.395 28.0851 193.357 28.0851C193.357 28.0477 193.357 28.0103 193.357 27.9729C193.32 27.8982 193.301 27.8421 193.301 27.8047C193.301 27.7674 193.282 27.7113 193.245 27.6365C193.207 27.5618 193.189 27.5057 193.189 27.4684C193.189 27.431 193.17 27.3749 193.132 27.3002C193.095 27.2628 193.076 27.2254 193.076 27.188C193.076 27.1507 193.057 27.1133 193.02 27.0759C192.945 26.9264 192.907 26.8517 192.907 26.8517C192.87 26.8143 192.851 26.7956 192.851 26.7956C192.851 26.7582 192.832 26.7208 192.795 26.6835C192.757 26.6461 192.739 26.6087 192.739 26.5713C192.701 26.534 192.682 26.4966 192.682 26.4592H192.626C192.626 26.4592 192.645 26.4966 192.682 26.5713V26.6835C192.72 26.7208 192.739 26.7956 192.739 26.9077C192.739 26.9451 192.739 26.9825 192.739 27.0198C192.776 27.0198 192.795 27.0572 192.795 27.132C192.795 27.2441 192.814 27.3375 192.851 27.4123V27.6926C192.851 27.7674 192.851 27.8234 192.851 27.8608C192.889 27.8982 192.907 27.9542 192.907 28.029C192.907 28.3654 192.926 28.627 192.964 28.8139V29.7109C193.001 29.8978 193.02 30.1968 193.02 30.6079V32.7383ZM181.432 38.5128C181.432 38.3259 181.413 38.1204 181.375 37.8961C181.375 37.6719 181.375 37.4476 181.375 37.2234V35.99C181.338 35.1677 181.319 34.3828 181.319 33.6353C181.319 32.8878 181.3 32.1777 181.263 31.5049C181.225 31.2059 181.207 30.9069 181.207 30.6079C181.207 30.3089 181.188 30.0286 181.15 29.7669C181.15 29.4679 181.132 29.2063 181.094 28.9821C181.094 28.7578 181.094 28.5522 181.094 28.3654C181.094 28.1785 181.075 28.0103 181.038 27.8608C181.038 27.7113 181.038 27.5805 181.038 27.4684V27.188C181 27.188 180.982 27.2067 180.982 27.2441V27.4684C180.982 27.5805 180.963 27.7113 180.925 27.8608C180.925 28.0103 180.925 28.1785 180.925 28.3654C180.925 28.5522 180.907 28.7578 180.869 28.9821C180.869 29.2063 180.869 29.4679 180.869 29.7669C180.832 30.0286 180.813 30.3089 180.813 30.6079C180.813 30.9069 180.794 31.2059 180.757 31.5049C180.719 32.1777 180.7 32.8878 180.7 33.6353C180.7 34.3828 180.682 35.1677 180.644 35.99V37.2234C180.644 37.4476 180.625 37.6719 180.588 37.8961C180.588 38.1204 180.588 38.3259 180.588 38.5128V43.7267C180.588 44.0257 180.607 44.25 180.644 44.3995V46.2496C180.644 46.6607 180.644 47.0718 180.644 47.483C180.682 47.8567 180.7 48.2305 180.7 48.6042C180.7 49.0153 180.7 49.3891 180.7 49.7255C180.738 50.0619 180.757 50.3982 180.757 50.7346C180.794 51.071 180.813 51.3887 180.813 51.6877C180.813 51.9493 180.832 52.2296 180.869 52.5286C180.869 52.7903 180.869 53.0332 180.869 53.2575C180.907 53.4817 180.925 53.6873 180.925 53.8742C180.925 54.061 180.925 54.2479 180.925 54.4348C180.963 54.5843 180.982 54.6964 180.982 54.7712V55.0515C180.982 55.0889 181 55.1076 181.038 55.1076V54.7712C181.038 54.6964 181.038 54.5843 181.038 54.4348C181.075 54.2479 181.094 54.061 181.094 53.8742C181.094 53.6873 181.094 53.4817 181.094 53.2575C181.132 53.0332 181.15 52.7903 181.15 52.5286C181.188 52.2296 181.207 51.9493 181.207 51.6877C181.207 51.3887 181.225 51.071 181.263 50.7346C181.263 50.3982 181.263 50.0619 181.263 49.7255C181.3 49.3891 181.319 49.0153 181.319 48.6042C181.319 48.2305 181.319 47.8567 181.319 47.483C181.357 47.0718 181.375 46.6607 181.375 46.2496V45.0162C181.375 44.7172 181.394 44.5116 181.432 44.3995V38.5128ZM190.713 30.2715C190.713 29.7856 190.695 29.1876 190.657 28.4775C190.62 27.7674 190.488 27.0946 190.263 26.4592C190.038 25.8238 189.682 25.2819 189.195 24.8334C188.745 24.3475 188.07 24.1046 187.17 24.1046H185.144C184.732 24.1419 184.376 24.3101 184.076 24.6091C183.776 24.9081 183.626 25.2632 183.626 25.6743V38.2886C183.626 38.6997 183.776 39.0548 184.076 39.3538C184.376 39.6528 184.732 39.8023 185.144 39.8023H187.17C188.07 39.8023 188.745 39.578 189.195 39.1295C189.682 38.681 190.038 38.1391 190.263 37.5037C190.488 36.8309 190.62 36.1582 190.657 35.4854C190.695 34.7753 190.713 34.1773 190.713 33.6914V30.2715ZM194.482 60.9942C194.482 60.9942 194.464 60.9755 194.426 60.9381L194.37 60.8821C194.332 60.8073 194.295 60.7326 194.257 60.6578C194.257 60.5831 194.22 60.5083 194.145 60.4336C194.107 60.3214 194.07 60.2093 194.032 60.0972C193.995 59.9477 193.957 59.7795 193.92 59.5926C193.845 59.2189 193.807 58.8638 193.807 58.5274C193.77 58.3405 193.751 58.1537 193.751 57.9668C193.751 57.7425 193.751 57.4996 193.751 57.238V54.2666C193.751 54.005 193.751 53.7434 193.751 53.4817C193.751 53.2201 193.77 52.9398 193.807 52.6408C193.807 52.3791 193.807 52.1175 193.807 51.8559C193.807 51.5943 193.789 51.3326 193.751 51.071V50.2861C193.751 49.9124 193.732 49.6507 193.695 49.5012C193.695 49.2396 193.676 48.9967 193.639 48.7724C193.639 48.5108 193.62 48.2678 193.582 48.0436C193.507 47.5203 193.432 47.0718 193.357 46.6981C193.32 46.5112 193.282 46.343 193.245 46.1935C193.207 46.0066 193.151 45.8197 193.076 45.6329C193.001 45.446 192.945 45.2965 192.907 45.1844C192.87 45.0722 192.814 44.9601 192.739 44.848C192.664 44.7358 192.607 44.6424 192.57 44.5677C192.532 44.4929 192.495 44.4182 192.457 44.3434C192.42 44.3434 192.382 44.3247 192.345 44.2873C192.307 44.2873 192.289 44.2687 192.289 44.2313L192.345 44.2873C192.345 44.3247 192.364 44.3621 192.401 44.3995C192.401 44.4368 192.401 44.4742 192.401 44.5116C192.439 44.5116 192.457 44.549 192.457 44.6237C192.495 44.6611 192.514 44.6985 192.514 44.7358C192.514 44.7732 192.532 44.8293 192.57 44.904C192.607 45.0535 192.664 45.3152 192.739 45.6889C192.776 45.8758 192.795 46.0627 192.795 46.2496C192.832 46.4364 192.87 46.6233 192.907 46.8102C192.907 46.9971 192.907 47.2026 192.907 47.4269C192.945 47.6138 192.964 47.838 192.964 48.0996V55.0515C192.964 55.201 192.964 55.3318 192.964 55.4439C193.001 55.5561 193.02 55.6869 193.02 55.8364C193.02 56.098 193.02 56.3596 193.02 56.6213C193.057 56.8455 193.095 57.0698 193.132 57.294C193.17 57.5183 193.189 57.7425 193.189 57.9668C193.226 58.191 193.264 58.3966 193.301 58.5835C193.376 58.8077 193.432 59.0133 193.47 59.2002C193.507 59.3497 193.564 59.5179 193.639 59.7047C193.714 59.8916 193.77 60.0411 193.807 60.1533C193.845 60.2654 193.901 60.3775 193.976 60.4896L194.089 60.6018C194.126 60.6391 194.145 60.6765 194.145 60.7139C194.145 60.7139 194.164 60.7326 194.201 60.77L194.426 60.9942H194.482Z" fill="#F4EDE8"/>
<ellipse rx="3.01354" ry="3.00339" transform="matrix(1 0 0 -1 210.947 42.0288)" fill="#999591"/>
<ellipse rx="3.01354" ry="3.00339" transform="matrix(1 0 0 -1 19.0857 42.0288)" fill="#999591"/>
</svg>
